<?xml version="1.0" encoding="UTF-8"?>
<svg xmlns="http://www.w3.org/2000/svg" version="1.1" viewBox="0 0 294.72 51.05">
  <defs>
    <style>
      .cls-1 {
        fill: #94c8a2;
      }

      .cls-1, .cls-2 {
        stroke-width: 0px;
      }

      .cls-2, .cls-3 {
        fill: #ee9aa4;
      }

      .cls-3 {
        stroke: #fff;
        stroke-miterlimit: 10;
        stroke-width: 1.15px;
      }
    </style>
  </defs>
  <g id="Layer_2" data-name="Layer 2">
    <path class="cls-1" d="M9.83,45.24c-1.38-17.63,12.57-32.66,29.31-32.92,17.07-.26,31.64,14.93,30.25,32.92H9.83Z"/>
  </g>
  <g id="Layer_3" data-name="Layer 3">
    <path class="cls-3" d="M74.82,34.46c-2.02-3.78-3.91-5.07-5.56-5.13-3.4-.13-4.9,4.96-8.38,4.76-3.25-.19-3.93-4.75-7.02-4.76-3.18,0-4.15,4.85-7.21,4.76-2.95-.09-3.6-4.64-6.54-4.76-3.25-.13-4.51,5.38-7.61,5.19-2.96-.18-3.47-5.3-6.49-5.53-3.14-.24-4.41,5.19-7.83,5.1-2.99-.08-3.77-4.3-7.05-4.76-2.69-.38-5.29,2.02-7.18,4.32l5.85,11.6h59.56l5.44-10.79Z"/>
    <path class="cls-2" d="M39,6.39c-.76-.75-1.65-1.36-2.71-1.59-.84-.18-1.72.12-2.12.92-.22.43-.29.89-.23,1.37.08.6.39,1.18.86,1.57.39.32.82.6,1.23.89.14.1.28.2.41.3.05.04.28.22.07.05s.03.02.07.06c.21.17.39.36.58.55.7.7,1.74.9,2.51.18.26-.24.38-.57.5-.89.01-.04.03-.08.04-.11.05-.14-.05.12-.05.12.04-.04.07-.14.1-.19.39-.65.93-1.23,1.38-1.84.35-.47.6-.96.69-1.55.16-1.05.09-2.27-.71-3.08-.54-.55-1.36-.78-2.11-.57-.64.18-1.13.63-1.49,1.18-.27.42-.45.9-.62,1.37-.16.43-.29.87-.36,1.33-.07.39-.06.76.15,1.11.17.3.52.58.86.66.7.16,1.64-.21,1.77-1.01.07-.38.16-.75.29-1.12.05-.14.1-.29.15-.43.01-.04.03-.07.04-.11.06-.17-.13.29-.05.13.04-.08.08-.17.12-.25.04-.07.08-.13.12-.2.11-.2-.21.22-.05.06.21-.2-.1,0-.09.05,0-.02.12-.06.11-.07,0,0-.36.14-.17.08.22-.07-.41.03-.15.03-.11,0-.2-.02-.3-.06-.04-.02-.31-.15-.3-.2,0,0,.06.05.06.06.07.09-.13-.17-.13-.18,0,0,.05.08.05.08.08.12,0,.18-.05-.13,0,.07.05.14.06.2,0,.03.01.08.02.11.05.14-.05-.2-.02-.19.03,0,.01.48.01.52-.02.35.06-.26,0-.02-.02.08-.03.16-.06.24-.02.07-.07.16-.08.23,0-.01.21-.42.1-.26-.28.42-.57.82-.88,1.22-.27.35-.55.69-.8,1.05-.08.12-.14.24-.2.37-.09.19-.17.39-.24.59-.02.05-.07.18.02-.05.08-.18.25-.44.44-.51l.73-.2c.24,0,.44.07.61.21.1.08.1.08.01,0-.05-.06-.11-.12-.17-.18-.06-.07-.13-.13-.2-.19-.24-.21-.49-.4-.74-.6-.23-.18-.47-.35-.71-.52-.13-.09-.26-.19-.39-.28-.09-.06-.18-.12-.26-.19-.19-.13-.12-.13.1.08-.04-.04-.08-.07-.12-.1-.22-.2.11.18.03.05s.07.29.02.04c.08.36.03.28.03.15,0-.12.12-.26-.04.28.01-.03.02-.08.03-.11.03-.11,0-.04-.1.22.08-.13.02-.08-.17.15-.23.31-.56.41-.99.31l.09.02c.15.05.37.16.52.16-.12,0-.26-.12-.04,0,.07.04.14.08.21.12.03.02.23.12.24.16-.15-.12-.18-.15-.1-.08.04.03.07.06.11.09.14.12.28.25.41.38.54.53,1.51.58,2.04,0s.58-1.48,0-2.04h0Z"/>
    <g>
      <path class="cls-2" d="M92.69,41.37c1.98,0,3.04-.83,3.04-2.11,0-1.63-1.73-2.27-4.22-3.26-3.14-1.25-6.14-2.59-6.14-6.43,0-3.62,2.69-6.43,7.78-6.43,1.31,0,2.75.19,4.03.67,1.57.61,2.34,1.47,2.5,3.04l.13,1.31c.19,1.86-.86,2.59-2.05,2.59s-2.08-.8-2.27-2.14l-.16-1.02c-.8-.16-1.6-.26-2.34-.26-2.05,0-2.78.77-2.78,1.89,0,1.31,1.06,1.79,3.78,2.85,3.33,1.31,6.56,2.85,6.56,6.78s-3.23,6.72-7.84,6.72c-1.22,0-3.23-.19-4.67-.67-1.7-.58-2.46-1.5-2.59-3.2l-.1-1.41c-.13-1.98.99-2.59,2.02-2.59,1.15,0,2.14.77,2.3,2.14l.13,1.18c.83.26,2.21.35,2.91.35Z"/>
      <path class="cls-2" d="M103.12,32.86c-.06-.26-.16-.99-.16-1.28,0-1.31,1.02-2.37,2.34-2.37,1.06,0,2.11.8,2.27,1.79l1.41,9.7h.16l1.22-6.46c.26-1.38.96-2.59,2.94-2.59s2.69,1.22,2.94,2.59l1.12,6.46h.22l1.44-9.7c.16-.99,1.22-1.79,2.27-1.79,1.31,0,2.34,1.06,2.34,2.37,0,.29-.1,1.02-.16,1.28l-1.98,9.66c-.32,1.57-1.44,2.94-3.62,2.94s-3.36-1.38-3.65-2.94l-.86-4.64h-.19l-.8,4.64c-.26,1.57-1.44,2.94-3.65,2.94s-3.3-1.38-3.62-2.94l-1.98-9.66Z"/>
      <path class="cls-2" d="M133.74,41.79c.64,0,1.28-.1,1.86-.19.8-.13,1.57-.42,2.34-.42,1.28,0,1.86.83,1.86,1.7,0,.8-.51,1.34-1.18,1.73-1.18.67-3.33.96-4.9.96-5.34,0-7.74-3.42-7.74-8.29s2.46-8.16,7.36-8.16,6.78,3.55,6.78,7.26c0,2.27-.74,2.56-1.76,2.56h-7.62c0,1.54.61,2.85,3.01,2.85ZM135.79,35.93c0-1.66-.61-2.94-2.46-2.94-1.5,0-2.43.8-2.59,2.94h5.06Z"/>
      <path class="cls-2" d="M150.45,41.79c.64,0,1.28-.1,1.86-.19.8-.13,1.57-.42,2.34-.42,1.28,0,1.86.83,1.86,1.7,0,.8-.51,1.34-1.18,1.73-1.18.67-3.33.96-4.9.96-5.34,0-7.74-3.42-7.74-8.29s2.46-8.16,7.36-8.16,6.78,3.55,6.78,7.26c0,2.27-.74,2.56-1.76,2.56h-7.62c0,1.54.61,2.85,3.01,2.85ZM152.49,35.93c0-1.66-.61-2.94-2.46-2.94-1.5,0-2.43.8-2.59,2.94h5.06Z"/>
      <path class="cls-2" d="M160.05,33.34c-1.09,0-1.92-.83-1.92-1.92s.83-1.98,1.92-1.98h1.41v-3.04c0-1.34,1.02-2.37,2.37-2.37s2.37,1.02,2.37,2.37v3.04h3.26c1.09,0,1.92.9,1.92,1.98s-.83,1.92-1.92,1.92h-3.26v6.34c0,1.12.38,1.89,1.38,1.89.86,0,1.12-.54,1.98-.54.96,0,1.82.64,1.82,1.82,0,.74-.35,1.34-1.09,1.82-1.12.74-2.62.9-3.49.9-3.71,0-5.34-3.04-5.34-5.86v-6.37h-1.41Z"/>
      <path class="cls-2" d="M181.23,25.82c0-1.28,1.06-2.37,2.37-2.37h4.1c5.66,0,9.95,2.56,9.95,10.91s-4.8,10.88-10.02,10.88h-4.03c-1.31,0-2.37-1.06-2.37-2.37v-17.05ZM187.63,41.02c3.1,0,5.28-1.09,5.28-6.66s-2.11-6.69-5.22-6.69h-1.7v13.34h1.63Z"/>
      <path class="cls-2" d="M202.06,41.34h2.05v-8h-1.98c-1.09,0-1.92-.83-1.92-1.92s.83-1.98,1.92-1.98h3.87c.7,0,1.28.51,1.44,1.12l.19.7c1.66-1.28,3.81-2.14,5.6-2.14,1.38,0,2.34.7,2.43,1.79l.29,3.46c.1,1.25-.86,2.14-1.95,2.14-1.25,0-1.86-.77-2.02-1.7l-.26-1.47c-.93.19-2.05.83-2.88,1.44v6.56h2.02c1.09,0,1.92.86,1.92,1.95s-.83,1.95-1.92,1.95h-8.8c-1.09,0-1.92-.9-1.92-1.98s.83-1.92,1.92-1.92Z"/>
      <path class="cls-2" d="M225.52,41.79c.64,0,1.28-.1,1.86-.19.8-.13,1.57-.42,2.34-.42,1.28,0,1.86.83,1.86,1.7,0,.8-.51,1.34-1.18,1.73-1.18.67-3.33.96-4.9.96-5.34,0-7.74-3.42-7.74-8.29s2.46-8.16,7.36-8.16,6.78,3.55,6.78,7.26c0,2.27-.74,2.56-1.76,2.56h-7.62c0,1.54.61,2.85,3.01,2.85ZM227.56,35.93c0-1.66-.61-2.94-2.46-2.94-1.5,0-2.43.8-2.59,2.94h5.06Z"/>
      <path class="cls-2" d="M243.21,35.13c0-1.06-.32-2.14-2.4-2.14-.35,0-.86.03-1.5.19-.67.16-1.54.42-2.18.42-1.28,0-1.92-.93-1.92-1.89,0-.58.22-1.15,1.09-1.63,1.15-.64,3.26-.96,4.99-.96,6.05,0,6.66,3.84,6.66,6.05v4.64c0,1.79.42,2.62.42,3.49,0,1.15-.7,2.18-2.14,2.18-1.31,0-1.95-.83-2.11-1.41l-.16-.58c-1.41,1.5-3.04,2.08-4.67,2.08-3.23,0-5.15-2.21-5.15-4.93,0-3.1,2.5-4.86,6.59-4.86h2.5v-.64ZM243.21,38.94h-2.3c-1.41,0-2.18.45-2.18,1.34s.74,1.41,1.82,1.41c.96,0,1.86-.42,2.66-1.09v-1.66Z"/>
      <path class="cls-2" d="M252.2,34.91c0-1.79-.42-2.53-.42-3.39,0-1.22.64-2.27,2.11-2.27,1.28,0,1.89.58,2.14,1.41l.16.54c1.41-1.5,3.17-2.08,4.35-2.08,1.66,0,3.17.67,4.29,2.05,1.28-1.28,2.98-2.05,4.77-2.05,3.68,0,5.63,2.34,5.63,5.57v8.42c0,1.34-1.02,2.37-2.37,2.37s-2.37-1.02-2.37-2.37v-7.81c0-1.5-.64-2.3-1.82-2.3-.7,0-1.54.13-2.75,1.06.16.64.16,1.73.16,2.14v6.91c0,1.34-1.02,2.37-2.37,2.37s-2.37-1.02-2.37-2.37v-7.81c0-1.5-.61-2.3-1.89-2.3-.8,0-1.82.48-2.53,1.09v9.02c0,1.34-1.02,2.37-2.37,2.37s-2.37-1.02-2.37-2.37v-8.19Z"/>
      <path class="cls-2" d="M283.28,33.85c0,.93,1.25,1.31,3.07,1.82,2.34.67,5.5,1.66,5.5,4.96s-3.26,4.93-6.72,4.93c-1.47,0-4.06-.29-5.44-.96-.74-.35-1.28-.86-1.28-1.73,0-.96.64-1.92,1.92-1.92.7,0,1.5.29,2.3.51.9.26,1.76.45,2.53.45,1.28,0,1.95-.51,1.95-1.09,0-.77-1.15-1.22-3.07-1.73-1.76-.48-5.5-1.5-5.5-4.99s3.26-4.99,6.43-4.99c1.66,0,3.97.45,5.12,1.06.67.35,1.25.9,1.25,1.76s-.58,1.79-1.76,1.79c-.67,0-1.34-.29-2.05-.51-.77-.26-1.47-.45-2.34-.45-1.38,0-1.92.48-1.92,1.09Z"/>
    </g>
  </g>
</svg>